# xmcd
#
# Track frame offsets: 
#        150
#        19049
#        37653
#        53791
#        74925
#        85724
#        99444
#        111377
#        131828
#        149211
#        166607
#        189336
#
# Disc length: 2735 seconds
#
# Revision: 0
# Processed by: cddbd v1.5.2PL0 Copyright (c) Steve Scherf et al.
# Submitted via: ExactAudioCopy v0.95b4
#
DISCID=a50aad0c
DTITLE=Mike Scott - Star-Spangled Bluegrass
DYEAR=1900
DGENRE=Bluegrass
TTITLE0=America The Beautiful
TTITLE1=When The Saints Go Marching In
TTITLE2=Camptown Races
TTITLE3=Askokan Races
TTITLE4=Battle Hymn Of The Republic
TTITLE5=This Land Is Your Land
TTITLE6=Eighth Of January
TTITLE7=The Girl I Left Behind Me
TTITLE8=Soldier's Joy
TTITLE9=Gold Rush
TTITLE10=The Battlefield
TTITLE11=Under The Double Eagle
EXTD=
EXTT0=
EXTT1=
EXTT2=
EXTT3=
EXTT4=
EXTT5=
EXTT6=
EXTT7=
EXTT8=
EXTT9=
EXTT10=
EXTT11=
PLAYORDER=
